<mxfile host="app.diagrams.net" modified="2024-05-12T23:12:08.534Z" agent="Mozilla/5.0 (Windows NT 10.0; Win64; x64) AppleWebKit/537.36 (KHTML, like Gecko) Chrome/124.0.0.0 Safari/537.36" etag="3GospFHdhEP-IEEg6yAQ" version="24.4.0" type="device">
  <diagram name="PÃ¡gina-1" id="dQosSo9aFtHesNLGAmVI">
    <mxGraphModel dx="1290" dy="653" grid="1" gridSize="10" guides="1" tooltips="1" connect="1" arrows="1" fold="1" page="1" pageScale="1" pageWidth="827" pageHeight="1169" math="0" shadow="0">
      <root>
        <mxCell id="0" />
        <mxCell id="1" parent="0" />
        <mxCell id="zS_e5yhTXhwQkNNHLyUT-13" style="edgeStyle=orthogonalEdgeStyle;rounded=0;orthogonalLoop=1;jettySize=auto;html=1;exitX=0.5;exitY=1;exitDx=0;exitDy=0;" edge="1" parent="1" source="zS_e5yhTXhwQkNNHLyUT-1" target="zS_e5yhTXhwQkNNHLyUT-2">
          <mxGeometry relative="1" as="geometry" />
        </mxCell>
        <mxCell id="zS_e5yhTXhwQkNNHLyUT-1" value="Algoritmo Practico 2 ejer 3" style="ellipse;whiteSpace=wrap;html=1;" vertex="1" parent="1">
          <mxGeometry x="331" y="40" width="166" height="80" as="geometry" />
        </mxCell>
        <mxCell id="zS_e5yhTXhwQkNNHLyUT-14" style="edgeStyle=orthogonalEdgeStyle;rounded=0;orthogonalLoop=1;jettySize=auto;html=1;exitX=0.5;exitY=1;exitDx=0;exitDy=0;" edge="1" parent="1" source="zS_e5yhTXhwQkNNHLyUT-2" target="zS_e5yhTXhwQkNNHLyUT-3">
          <mxGeometry relative="1" as="geometry" />
        </mxCell>
        <mxCell id="zS_e5yhTXhwQkNNHLyUT-2" value="entrada string s1" style="rounded=0;whiteSpace=wrap;html=1;" vertex="1" parent="1">
          <mxGeometry x="354" y="150" width="120" height="60" as="geometry" />
        </mxCell>
        <mxCell id="zS_e5yhTXhwQkNNHLyUT-15" style="edgeStyle=orthogonalEdgeStyle;rounded=0;orthogonalLoop=1;jettySize=auto;html=1;exitX=0.5;exitY=1;exitDx=0;exitDy=0;entryX=0.5;entryY=0;entryDx=0;entryDy=0;" edge="1" parent="1" source="zS_e5yhTXhwQkNNHLyUT-3" target="zS_e5yhTXhwQkNNHLyUT-4">
          <mxGeometry relative="1" as="geometry" />
        </mxCell>
        <mxCell id="zS_e5yhTXhwQkNNHLyUT-3" value="definir i = 0" style="rounded=0;whiteSpace=wrap;html=1;" vertex="1" parent="1">
          <mxGeometry x="354" y="230" width="120" height="60" as="geometry" />
        </mxCell>
        <mxCell id="zS_e5yhTXhwQkNNHLyUT-16" style="edgeStyle=orthogonalEdgeStyle;rounded=0;orthogonalLoop=1;jettySize=auto;html=1;exitX=1;exitY=0.5;exitDx=0;exitDy=0;" edge="1" parent="1" source="zS_e5yhTXhwQkNNHLyUT-4" target="zS_e5yhTXhwQkNNHLyUT-5">
          <mxGeometry relative="1" as="geometry" />
        </mxCell>
        <mxCell id="zS_e5yhTXhwQkNNHLyUT-17" value="V" style="edgeLabel;html=1;align=center;verticalAlign=middle;resizable=0;points=[];" vertex="1" connectable="0" parent="zS_e5yhTXhwQkNNHLyUT-16">
          <mxGeometry x="0.3548" y="2" relative="1" as="geometry">
            <mxPoint y="-1" as="offset" />
          </mxGeometry>
        </mxCell>
        <mxCell id="zS_e5yhTXhwQkNNHLyUT-31" style="edgeStyle=orthogonalEdgeStyle;rounded=0;orthogonalLoop=1;jettySize=auto;html=1;exitX=0;exitY=0.5;exitDx=0;exitDy=0;entryX=0;entryY=0.5;entryDx=0;entryDy=0;" edge="1" parent="1" source="zS_e5yhTXhwQkNNHLyUT-4" target="zS_e5yhTXhwQkNNHLyUT-29">
          <mxGeometry relative="1" as="geometry">
            <Array as="points">
              <mxPoint x="160" y="360" />
              <mxPoint x="160" y="900" />
            </Array>
          </mxGeometry>
        </mxCell>
        <mxCell id="zS_e5yhTXhwQkNNHLyUT-4" value="&#xa;&lt;div style=&quot;color: #3b3b3b;background-color: #ffffff;font-family: Consolas, &#39;Courier New&#39;, monospace;font-weight: normal;font-size: 14px;line-height: 19px;white-space: pre;&quot;&gt;&lt;div&gt;&lt;span style=&quot;color: #3b3b3b;&quot;&gt;i &lt;/span&gt;&lt;span style=&quot;color: #000000;&quot;&gt;&amp;lt;&lt;/span&gt;&lt;span style=&quot;color: #3b3b3b;&quot;&gt; &lt;/span&gt;&lt;span style=&quot;color: #098658;&quot;&gt;20&lt;/span&gt;&lt;/div&gt;&lt;/div&gt;&#xa;&#xa;" style="rhombus;whiteSpace=wrap;html=1;" vertex="1" parent="1">
          <mxGeometry x="374" y="320" width="80" height="80" as="geometry" />
        </mxCell>
        <mxCell id="zS_e5yhTXhwQkNNHLyUT-18" style="edgeStyle=orthogonalEdgeStyle;rounded=0;orthogonalLoop=1;jettySize=auto;html=1;exitX=0.5;exitY=1;exitDx=0;exitDy=0;" edge="1" parent="1" source="zS_e5yhTXhwQkNNHLyUT-5" target="zS_e5yhTXhwQkNNHLyUT-7">
          <mxGeometry relative="1" as="geometry" />
        </mxCell>
        <mxCell id="zS_e5yhTXhwQkNNHLyUT-5" value="definir string caracter =s1[i]" style="rounded=0;whiteSpace=wrap;html=1;" vertex="1" parent="1">
          <mxGeometry x="500" y="420" width="160" height="60" as="geometry" />
        </mxCell>
        <mxCell id="zS_e5yhTXhwQkNNHLyUT-19" style="edgeStyle=orthogonalEdgeStyle;rounded=0;orthogonalLoop=1;jettySize=auto;html=1;exitX=1;exitY=0.5;exitDx=0;exitDy=0;" edge="1" parent="1" source="zS_e5yhTXhwQkNNHLyUT-7" target="zS_e5yhTXhwQkNNHLyUT-8">
          <mxGeometry relative="1" as="geometry" />
        </mxCell>
        <mxCell id="zS_e5yhTXhwQkNNHLyUT-20" value="V" style="edgeLabel;html=1;align=center;verticalAlign=middle;resizable=0;points=[];" vertex="1" connectable="0" parent="zS_e5yhTXhwQkNNHLyUT-19">
          <mxGeometry x="0.116" y="1" relative="1" as="geometry">
            <mxPoint as="offset" />
          </mxGeometry>
        </mxCell>
        <mxCell id="zS_e5yhTXhwQkNNHLyUT-21" style="edgeStyle=orthogonalEdgeStyle;rounded=0;orthogonalLoop=1;jettySize=auto;html=1;exitX=0;exitY=0.5;exitDx=0;exitDy=0;" edge="1" parent="1" source="zS_e5yhTXhwQkNNHLyUT-7" target="zS_e5yhTXhwQkNNHLyUT-9">
          <mxGeometry relative="1" as="geometry" />
        </mxCell>
        <mxCell id="zS_e5yhTXhwQkNNHLyUT-22" value="F" style="edgeLabel;html=1;align=center;verticalAlign=middle;resizable=0;points=[];" vertex="1" connectable="0" parent="zS_e5yhTXhwQkNNHLyUT-21">
          <mxGeometry x="0.1959" y="1" relative="1" as="geometry">
            <mxPoint as="offset" />
          </mxGeometry>
        </mxCell>
        <mxCell id="zS_e5yhTXhwQkNNHLyUT-7" value="&lt;br&gt;&lt;div style=&quot;color: #3b3b3b;background-color: #ffffff;font-family: Consolas, &#39;Courier New&#39;, monospace;font-weight: normal;font-size: 14px;line-height: 19px;white-space: pre;&quot;&gt;&lt;div&gt;&lt;span style=&quot;color: #3b3b3b;&quot;&gt;caracter &lt;/span&gt;&lt;span style=&quot;color: #000000;&quot;&gt;=&lt;/span&gt;&lt;span style=&quot;color: #a31515;&quot;&gt;&quot; &quot;&lt;/span&gt;&lt;/div&gt;&lt;/div&gt;&lt;div&gt;&lt;br/&gt;&lt;/div&gt;" style="rhombus;whiteSpace=wrap;html=1;" vertex="1" parent="1">
          <mxGeometry x="510" y="510" width="140" height="80" as="geometry" />
        </mxCell>
        <mxCell id="zS_e5yhTXhwQkNNHLyUT-33" style="edgeStyle=orthogonalEdgeStyle;rounded=0;orthogonalLoop=1;jettySize=auto;html=1;exitX=1;exitY=0.5;exitDx=0;exitDy=0;" edge="1" parent="1" source="zS_e5yhTXhwQkNNHLyUT-8">
          <mxGeometry relative="1" as="geometry">
            <mxPoint x="790" y="620" as="targetPoint" />
          </mxGeometry>
        </mxCell>
        <mxCell id="zS_e5yhTXhwQkNNHLyUT-8" value="mostrar &quot;&quot;" style="shape=parallelogram;perimeter=parallelogramPerimeter;whiteSpace=wrap;html=1;fixedSize=1;" vertex="1" parent="1">
          <mxGeometry x="650" y="590" width="120" height="60" as="geometry" />
        </mxCell>
        <mxCell id="zS_e5yhTXhwQkNNHLyUT-23" style="edgeStyle=orthogonalEdgeStyle;rounded=0;orthogonalLoop=1;jettySize=auto;html=1;exitX=1;exitY=0.5;exitDx=0;exitDy=0;entryX=0.5;entryY=0;entryDx=0;entryDy=0;" edge="1" parent="1" source="zS_e5yhTXhwQkNNHLyUT-9" target="zS_e5yhTXhwQkNNHLyUT-10">
          <mxGeometry relative="1" as="geometry" />
        </mxCell>
        <mxCell id="zS_e5yhTXhwQkNNHLyUT-24" value="V" style="edgeLabel;html=1;align=center;verticalAlign=middle;resizable=0;points=[];" vertex="1" connectable="0" parent="zS_e5yhTXhwQkNNHLyUT-23">
          <mxGeometry x="-0.4652" y="3" relative="1" as="geometry">
            <mxPoint as="offset" />
          </mxGeometry>
        </mxCell>
        <mxCell id="zS_e5yhTXhwQkNNHLyUT-25" style="edgeStyle=orthogonalEdgeStyle;rounded=0;orthogonalLoop=1;jettySize=auto;html=1;exitX=0;exitY=0.5;exitDx=0;exitDy=0;" edge="1" parent="1" source="zS_e5yhTXhwQkNNHLyUT-9" target="zS_e5yhTXhwQkNNHLyUT-11">
          <mxGeometry relative="1" as="geometry" />
        </mxCell>
        <mxCell id="zS_e5yhTXhwQkNNHLyUT-26" value="F" style="edgeLabel;html=1;align=center;verticalAlign=middle;resizable=0;points=[];" vertex="1" connectable="0" parent="zS_e5yhTXhwQkNNHLyUT-25">
          <mxGeometry x="0.3147" relative="1" as="geometry">
            <mxPoint y="1" as="offset" />
          </mxGeometry>
        </mxCell>
        <mxCell id="zS_e5yhTXhwQkNNHLyUT-9" value="&lt;br&gt;&lt;div style=&quot;color: #3b3b3b;background-color: #ffffff;font-family: Consolas, &#39;Courier New&#39;, monospace;font-weight: normal;font-size: 14px;line-height: 19px;white-space: pre;&quot;&gt;&lt;div&gt;&lt;span style=&quot;color: #3b3b3b;&quot;&gt;caracter &lt;/span&gt;&lt;span style=&quot;color: #000000;&quot;&gt;=&lt;/span&gt;&lt;span style=&quot;color: #3b3b3b;&quot;&gt; &lt;/span&gt;&lt;span style=&quot;color: #a31515;&quot;&gt;&quot;1&quot;&lt;/span&gt;&lt;/div&gt;&lt;/div&gt;&lt;div&gt;&lt;br/&gt;&lt;/div&gt;" style="rhombus;whiteSpace=wrap;html=1;" vertex="1" parent="1">
          <mxGeometry x="380" y="590" width="146" height="80" as="geometry" />
        </mxCell>
        <mxCell id="zS_e5yhTXhwQkNNHLyUT-32" style="edgeStyle=orthogonalEdgeStyle;rounded=0;orthogonalLoop=1;jettySize=auto;html=1;exitX=1;exitY=0.5;exitDx=0;exitDy=0;entryX=0.5;entryY=0;entryDx=0;entryDy=0;" edge="1" parent="1" source="zS_e5yhTXhwQkNNHLyUT-10" target="zS_e5yhTXhwQkNNHLyUT-4">
          <mxGeometry relative="1" as="geometry">
            <Array as="points">
              <mxPoint x="790" y="720" />
              <mxPoint x="790" y="300" />
              <mxPoint x="414" y="300" />
            </Array>
          </mxGeometry>
        </mxCell>
        <mxCell id="zS_e5yhTXhwQkNNHLyUT-34" value="i = i +1" style="edgeLabel;html=1;align=center;verticalAlign=middle;resizable=0;points=[];" vertex="1" connectable="0" parent="zS_e5yhTXhwQkNNHLyUT-32">
          <mxGeometry x="-0.0141" y="-2" relative="1" as="geometry">
            <mxPoint as="offset" />
          </mxGeometry>
        </mxCell>
        <mxCell id="zS_e5yhTXhwQkNNHLyUT-10" value="mostrar&amp;nbsp;&lt;span style=&quot;color: rgb(163, 21, 21); background-color: rgb(255, 255, 255); font-family: Consolas, &amp;quot;Courier New&amp;quot;, monospace; font-size: 14px; white-space: pre;&quot;&gt;&quot;Om-nom-nom :P&quot;&lt;/span&gt;" style="shape=parallelogram;perimeter=parallelogramPerimeter;whiteSpace=wrap;html=1;fixedSize=1;" vertex="1" parent="1">
          <mxGeometry x="460" y="690" width="190" height="60" as="geometry" />
        </mxCell>
        <mxCell id="zS_e5yhTXhwQkNNHLyUT-27" style="edgeStyle=orthogonalEdgeStyle;rounded=0;orthogonalLoop=1;jettySize=auto;html=1;exitX=1;exitY=0.5;exitDx=0;exitDy=0;" edge="1" parent="1" source="zS_e5yhTXhwQkNNHLyUT-11" target="zS_e5yhTXhwQkNNHLyUT-12">
          <mxGeometry relative="1" as="geometry" />
        </mxCell>
        <mxCell id="zS_e5yhTXhwQkNNHLyUT-28" value="V" style="edgeLabel;html=1;align=center;verticalAlign=middle;resizable=0;points=[];" vertex="1" connectable="0" parent="zS_e5yhTXhwQkNNHLyUT-27">
          <mxGeometry x="-0.2927" y="2" relative="1" as="geometry">
            <mxPoint as="offset" />
          </mxGeometry>
        </mxCell>
        <mxCell id="zS_e5yhTXhwQkNNHLyUT-11" value="&lt;br&gt;&lt;div style=&quot;color: #3b3b3b;background-color: #ffffff;font-family: Consolas, &#39;Courier New&#39;, monospace;font-weight: normal;font-size: 14px;line-height: 19px;white-space: pre;&quot;&gt;&lt;div&gt;&lt;span style=&quot;color: #3b3b3b;&quot;&gt;caracter &lt;/span&gt;&lt;span style=&quot;color: #000000;&quot;&gt;=&lt;/span&gt;&lt;span style=&quot;color: #3b3b3b;&quot;&gt; &lt;/span&gt;&lt;span style=&quot;color: #a31515;&quot;&gt;&quot;0&quot;&lt;/span&gt;&lt;/div&gt;&lt;/div&gt;&lt;div&gt;&lt;br/&gt;&lt;/div&gt;" style="rhombus;whiteSpace=wrap;html=1;" vertex="1" parent="1">
          <mxGeometry x="220" y="680" width="169" height="80" as="geometry" />
        </mxCell>
        <mxCell id="zS_e5yhTXhwQkNNHLyUT-12" value="mostrar&amp;nbsp;&lt;span style=&quot;color: rgb(163, 21, 21); background-color: rgb(255, 255, 255); font-family: Consolas, &amp;quot;Courier New&amp;quot;, monospace; font-size: 14px; white-space: pre;&quot;&gt;&quot;No cake :(&quot;&lt;/span&gt;" style="shape=parallelogram;perimeter=parallelogramPerimeter;whiteSpace=wrap;html=1;fixedSize=1;" vertex="1" parent="1">
          <mxGeometry x="304" y="780" width="206" height="60" as="geometry" />
        </mxCell>
        <mxCell id="zS_e5yhTXhwQkNNHLyUT-29" value="FinAlgoritmo" style="ellipse;whiteSpace=wrap;html=1;" vertex="1" parent="1">
          <mxGeometry x="334" y="860" width="120" height="80" as="geometry" />
        </mxCell>
        <mxCell id="zS_e5yhTXhwQkNNHLyUT-30" style="edgeStyle=orthogonalEdgeStyle;rounded=0;orthogonalLoop=1;jettySize=auto;html=1;exitX=0.5;exitY=1;exitDx=0;exitDy=0;entryX=0.587;entryY=0.033;entryDx=0;entryDy=0;entryPerimeter=0;" edge="1" parent="1" source="zS_e5yhTXhwQkNNHLyUT-12" target="zS_e5yhTXhwQkNNHLyUT-29">
          <mxGeometry relative="1" as="geometry" />
        </mxCell>
      </root>
    </mxGraphModel>
  </diagram>
</mxfile>
